<svg width="20" height="20" viewBox="0 0 20 20" fill="none" xmlns="http://www.w3.org/2000/svg">
<path d="M10.0144 2.00835C12.6233 2.00835 12.9322 2.01979 13.9583 2.06556C14.9118 2.10752 15.4267 2.26771 15.77 2.40121C16.2239 2.57666 16.5519 2.79026 16.8914 3.12972C17.2347 3.473 17.4444 3.79721 17.6199 4.2511C17.7534 4.59438 17.9136 5.11311 17.9555 6.06285C18.0013 7.09268 18.0128 7.40163 18.0128 10.0067C18.0128 12.6156 18.0013 12.9246 17.9555 13.9506C17.9136 14.9042 17.7534 15.4191 17.6199 15.7624C17.4444 16.2163 17.2308 16.5443 16.8914 16.8837C16.5481 17.227 16.2239 17.4368 15.77 17.6123C15.4267 17.7458 14.908 17.906 13.9583 17.9479C12.9284 17.9937 12.6195 18.0051 10.0144 18.0051C7.40545 18.0051 7.0965 17.9937 6.07048 17.9479C5.11693 17.906 4.60201 17.7458 4.25873 17.6123C3.80484 17.4368 3.47682 17.2232 3.13735 16.8837C2.79407 16.5405 2.58429 16.2163 2.40884 15.7624C2.27534 15.4191 2.11515 14.9004 2.07319 13.9506C2.02742 12.9208 2.01598 12.6118 2.01598 10.0067C2.01598 7.39782 2.02742 7.08887 2.07319 6.06285C2.11515 5.1093 2.27534 4.59438 2.40884 4.2511C2.58429 3.79721 2.79789 3.46919 3.13735 3.12972C3.48063 2.78645 3.80484 2.57666 4.25873 2.40121C4.60201 2.26771 5.12074 2.10752 6.07048 2.06556C7.0965 2.01979 7.40545 2.00835 10.0144 2.00835ZM10.0144 0.25C7.36349 0.25 7.03166 0.261443 5.99038 0.307213C4.95291 0.352984 4.23966 0.520808 3.62176 0.761103C2.97716 1.01284 2.43173 1.34468 1.89011 1.89011C1.34468 2.43172 1.01284 2.97716 0.761103 3.61794C0.520808 4.23966 0.352984 4.9491 0.307213 5.98656C0.261443 7.03165 0.25 7.36349 0.25 10.0144C0.25 12.6652 0.261443 12.9971 0.307213 14.0383C0.352984 15.0758 0.520808 15.7891 0.761103 16.407C1.01284 17.0516 1.34468 17.597 1.89011 18.1386C2.43173 18.6802 2.97716 19.0159 3.61794 19.2638C4.23966 19.5041 4.9491 19.6719 5.98656 19.7177C7.02784 19.7635 7.35968 19.7749 10.0105 19.7749C12.6614 19.7749 12.9933 19.7635 14.0345 19.7177C15.072 19.6719 15.7853 19.5041 16.4032 19.2638C17.0439 19.0159 17.5894 18.6802 18.131 18.1386C18.6726 17.597 19.0083 17.0516 19.2562 16.4108C19.4965 15.7891 19.6643 15.0796 19.7101 14.0422C19.7558 13.0009 19.7673 12.669 19.7673 10.0182C19.7673 7.36731 19.7558 7.03547 19.7101 5.99419C19.6643 4.95673 19.4965 4.24347 19.2562 3.62557C19.0159 2.97716 18.6841 2.43172 18.1386 1.89011C17.597 1.34849 17.0516 1.01284 16.4108 0.764918C15.7891 0.524623 15.0796 0.356798 14.0422 0.311027C12.9971 0.261443 12.6652 0.25 10.0144 0.25Z" fill="#585CC6"/>
<path d="M10.0157 4.99866C7.24657 4.99866 5 7.24522 5 10.0143C5 12.7834 7.24657 15.03 10.0157 15.03C12.7848 15.03 15.0314 12.7834 15.0314 10.0143C15.0314 7.24522 12.7848 4.99866 10.0157 4.99866ZM10.0157 13.2679C8.21919 13.2679 6.76216 11.8108 6.76216 10.0143C6.76216 8.21785 8.21919 6.76082 10.0157 6.76082C11.8122 6.76082 13.2692 8.21785 13.2692 10.0143C13.2692 11.8108 11.8122 13.2679 10.0157 13.2679Z" fill="#585CC6"/>
<path d="M16.3991 4.8006C16.3991 5.44902 15.8727 5.97156 15.2281 5.97156C14.5797 5.97156 14.0571 5.4452 14.0571 4.8006C14.0571 4.15219 14.5835 3.62964 15.2281 3.62964C15.8727 3.62964 16.3991 4.156 16.3991 4.8006Z" fill="#585CC6"/>
</svg>
